<?xml version="1.0" encoding="UTF-8"?>
<!DOCTYPE svg PUBLIC "-//W3C//DTD SVG 1.1//EN" "http://www.w3.org/Graphics/SVG/1.1/DTD/svg11.dtd">
<svg xmlns="http://www.w3.org/2000/svg" version="1.1" width="500px" height="500px" style="shape-rendering:geometricPrecision; text-rendering:geometricPrecision; image-rendering:optimizeQuality; fill-rule:evenodd; clip-rule:evenodd" xmlns:xlink="http://www.w3.org/1999/xlink">
<g><path style="opacity:1" fill="#fefefe" d="M -0.5,-0.5 C 166.167,-0.5 332.833,-0.5 499.5,-0.5C 499.5,166.167 499.5,332.833 499.5,499.5C 332.833,499.5 166.167,499.5 -0.5,499.5C -0.5,332.833 -0.5,166.167 -0.5,-0.5 Z"/></g>
<g><path style="opacity:1" fill="#9fd887" d="M 119.5,99.5 C 125.509,99.3338 131.509,99.5005 137.5,100C 141.637,107.109 145.637,114.275 149.5,121.5C 146.902,119.696 144.735,117.362 143,114.5C 142.347,111.193 140.681,108.527 138,106.5C 137.749,104.567 137.249,102.734 136.5,101C 130.835,100.432 125.502,100.598 120.5,101.5C 120.167,101.5 119.833,101.5 119.5,101.5C 119.5,100.833 119.5,100.167 119.5,99.5 Z"/></g>
<g><path style="opacity:1" fill="#f4ffea" d="M 119.5,99.5 C 119.5,100.167 119.5,100.833 119.5,101.5C 119.5,122.833 119.5,144.167 119.5,165.5C 123.5,165.5 127.5,165.5 131.5,165.5C 130.469,166.249 129.302,166.915 128,167.5C 124.667,166.833 121.333,166.167 118,165.5C 118.102,143.356 118.602,121.356 119.5,99.5 Z"/></g>
<g><path style="opacity:1" fill="#7dd955" d="M 149.5,121.5 C 151.008,123.181 152.008,125.181 152.5,127.5C 154.054,131.302 155.054,135.302 155.5,139.5C 150.606,140.54 150.273,142.54 154.5,145.5C 155.95,144.15 156.617,142.484 156.5,140.5C 157.5,140.5 158.5,140.5 159.5,140.5C 159.285,142.179 159.952,143.179 161.5,143.5C 160.925,146.571 162.091,148.571 165,149.5C 165.945,149.095 166.612,148.428 167,147.5C 167.111,142.997 166.611,138.664 165.5,134.5C 165.5,132.167 165.5,129.833 165.5,127.5C 166.493,119.016 166.826,110.349 166.5,101.5C 169.758,102.462 172.925,102.795 176,102.5C 176.5,122.164 176.667,141.831 176.5,161.5C 170.794,161.829 165.128,161.495 159.5,160.5C 158.511,159.532 157.844,158.365 157.5,157C 159.259,154.264 159.592,151.431 158.5,148.5C 156.19,153.328 154.023,152.995 152,147.5C 150.693,145.808 149.193,144.475 147.5,143.5C 145.604,141.163 144.27,138.496 143.5,135.5C 143.391,132.101 142.058,129.434 139.5,127.5C 138,126.375 136.667,125.041 135.5,123.5C 135.167,122.167 134.833,120.833 134.5,119.5C 134.962,114.756 133.462,113.756 130,116.5C 130.568,132.14 130.568,147.806 130,163.5C 126.943,164.451 123.777,164.784 120.5,164.5C 120.5,143.5 120.5,122.5 120.5,101.5C 125.502,100.598 130.835,100.432 136.5,101C 137.249,102.734 137.749,104.567 138,106.5C 140.681,108.527 142.347,111.193 143,114.5C 144.735,117.362 146.902,119.696 149.5,121.5 Z"/></g>
<g><path style="opacity:1" fill="#cdf3bb" d="M 177.5,99.5 C 177.5,100.167 177.5,100.833 177.5,101.5C 173.6,100.57 169.6,100.237 165.5,100.5C 165.5,109.5 165.5,118.5 165.5,127.5C 165.5,129.833 165.5,132.167 165.5,134.5C 165.666,138.846 165.499,143.179 165,147.5C 164.338,146.016 163.504,144.683 162.5,143.5C 164.483,129.205 165.15,114.538 164.5,99.5C 168.833,99.5 173.167,99.5 177.5,99.5 Z"/></g>
<g><path style="opacity:1" fill="#88d169" d="M 177.5,101.5 C 177.5,122.833 177.5,144.167 177.5,165.5C 171.31,165.823 165.31,165.49 159.5,164.5C 164.875,164.828 170.208,164.495 175.5,163.5C 170.014,162.185 164.68,162.185 159.5,163.5C 158.624,163.631 157.957,163.298 157.5,162.5C 154.411,155.986 151.078,149.653 147.5,143.5C 149.193,144.475 150.693,145.808 152,147.5C 154.023,152.995 156.19,153.328 158.5,148.5C 159.592,151.431 159.259,154.264 157.5,157C 157.844,158.365 158.511,159.532 159.5,160.5C 165.128,161.495 170.794,161.829 176.5,161.5C 176.667,141.831 176.5,122.164 176,102.5C 172.925,102.795 169.758,102.462 166.5,101.5C 166.826,110.349 166.493,119.016 165.5,127.5C 165.5,118.5 165.5,109.5 165.5,100.5C 169.6,100.237 173.6,100.57 177.5,101.5 Z"/></g>
<g><path style="opacity:1" fill="#e2fbd8" d="M 177.5,99.5 C 178.2,120.346 178.866,141.346 179.5,162.5C 179.36,164.03 178.693,165.03 177.5,165.5C 177.5,144.167 177.5,122.833 177.5,101.5C 177.5,100.833 177.5,100.167 177.5,99.5 Z"/></g>
<g><path style="opacity:1" fill="#244710" d="M 268.5,125.5 C 268.125,122.093 269.125,121.593 271.5,124C 274.146,124.497 276.813,124.664 279.5,124.5C 279.892,121.854 279.892,119.354 279.5,117C 276.287,116.297 273.121,116.464 270,117.5C 268.527,117.097 267.194,116.43 266,115.5C 265.747,112.8 265.747,110.133 266,107.5C 264.706,107.101 263.206,107.101 261.5,107.5C 260.289,108.72 260.289,109.887 261.5,111C 259.329,112.174 258.329,114.007 258.5,116.5C 256.263,117.449 253.929,118.116 251.5,118.5C 252.833,117.067 254.333,115.733 256,114.5C 257.167,111.5 258.333,108.5 259.5,105.5C 262.428,104.516 265.428,104.183 268.5,104.5C 268.5,108.167 268.5,111.833 268.5,115.5C 273.167,115.5 277.833,115.5 282.5,115.5C 282.5,118.833 282.5,122.167 282.5,125.5C 277.833,125.5 273.167,125.5 268.5,125.5 Z"/></g>
<g><path style="opacity:1" fill="#edf7e5" d="M 378.5,131.5 C 373.498,117.489 363.498,111.989 348.5,115C 342.994,116.735 338.661,119.901 335.5,124.5C 335.714,122.856 335.38,121.356 334.5,120C 337.696,118.243 340.696,116.243 343.5,114C 348.023,113.68 352.523,113.18 357,112.5C 361.82,113.64 366.653,114.64 371.5,115.5C 373.438,118.39 375.605,121.056 378,123.5C 378.497,126.146 378.664,128.813 378.5,131.5 Z"/></g>
<g><path style="opacity:1" fill="#204d09" d="M 268.5,125.5 C 268.055,134.94 268.555,144.274 270,153.5C 271.473,155.007 273.307,155.674 275.5,155.5C 278.176,155.163 280.843,154.83 283.5,154.5C 283.5,157.833 283.5,161.167 283.5,164.5C 277.61,166.232 271.61,166.732 265.5,166C 258.78,164.082 255.28,159.582 255,152.5C 254.5,143.506 254.334,134.506 254.5,125.5C 252.5,125.5 250.5,125.5 248.5,125.5C 248.338,123.473 248.505,121.473 249,119.5C 249.671,118.748 250.504,118.414 251.5,118.5C 253.929,118.116 256.263,117.449 258.5,116.5C 258.329,114.007 259.329,112.174 261.5,111C 260.289,109.887 260.289,108.72 261.5,107.5C 263.206,107.101 264.706,107.101 266,107.5C 265.747,110.133 265.747,112.8 266,115.5C 267.194,116.43 268.527,117.097 270,117.5C 273.121,116.464 276.287,116.297 279.5,117C 279.892,119.354 279.892,121.854 279.5,124.5C 276.813,124.664 274.146,124.497 271.5,124C 269.125,121.593 268.125,122.093 268.5,125.5 Z"/></g>
<g><path style="opacity:1" fill="#204b0a" d="M 378.5,131.5 C 378.5,135.5 378.5,139.5 378.5,143.5C 367.833,143.5 357.167,143.5 346.5,143.5C 345.939,149.918 348.605,154.251 354.5,156.5C 361.548,157.038 368.215,155.705 374.5,152.5C 375.489,156.107 375.823,159.774 375.5,163.5C 366.303,166.631 356.97,167.131 347.5,165C 333.793,157.928 328.959,146.761 333,131.5C 333.847,129.146 334.68,126.812 335.5,124.5C 338.661,119.901 342.994,116.735 348.5,115C 363.498,111.989 373.498,117.489 378.5,131.5 Z"/></g>
<g><path style="opacity:1" fill="#2b4b19" d="M 363.5,122.5 C 363.5,123.5 363.5,124.5 363.5,125.5C 365.942,125.119 366.609,125.786 365.5,127.5C 366.447,129.059 367.113,130.726 367.5,132.5C 367.253,133.713 366.586,134.38 365.5,134.5C 363.685,124.926 358.351,122.259 349.5,126.5C 347.673,128.487 346.673,130.821 346.5,133.5C 345.549,132.081 345.216,130.415 345.5,128.5C 346.977,126.193 348.977,124.36 351.5,123C 355.639,122.759 359.639,122.593 363.5,122.5 Z"/></g>
<g><path style="opacity:1" fill="#f6fcf3" d="M 365.5,134.5 C 358.978,134.823 352.645,134.49 346.5,133.5C 346.673,130.821 347.673,128.487 349.5,126.5C 358.351,122.259 363.685,124.926 365.5,134.5 Z"/></g>
<g><path style="opacity:1" fill="#194c01" d="M 363.5,122.5 C 359.639,122.593 355.639,122.759 351.5,123C 348.977,124.36 346.977,126.193 345.5,128.5C 341.605,131.345 341.605,134.178 345.5,137C 352.869,137.726 360.202,137.559 367.5,136.5C 367.5,137.5 367.5,138.5 367.5,139.5C 361.05,139.695 354.717,140.695 348.5,142.5C 347.106,142.379 345.772,142.046 344.5,141.5C 342.584,139.582 340.584,137.748 338.5,136C 337.552,135.517 336.552,135.351 335.5,135.5C 335.5,137.5 335.5,139.5 335.5,141.5C 338.261,142.92 341.261,143.587 344.5,143.5C 342.403,151.758 345.736,156.091 354.5,156.5C 358.684,157.166 363.018,157.833 367.5,158.5C 364.465,158.998 361.965,160.332 360,162.5C 356.172,160.671 352.506,160.671 349,162.5C 348.167,162.333 347.333,162.167 346.5,162C 346.833,161 347.167,160 347.5,159C 345.926,158.647 344.259,157.98 342.5,157C 341.235,153.166 338.902,151.999 335.5,153.5C 335.461,151.641 336.294,150.308 338,149.5C 338.495,147.527 338.662,145.527 338.5,143.5C 337.5,143.5 336.5,143.5 335.5,143.5C 335.657,144.873 335.49,146.207 335,147.5C 332.327,139.652 333.493,132.319 338.5,125.5C 339.72,124.289 340.887,124.289 342,125.5C 342.5,124.5 343,123.5 343.5,122.5C 346.008,120.055 349.008,118.388 352.5,117.5C 356.812,117.594 361.145,117.927 365.5,118.5C 365.709,119.086 366.043,119.586 366.5,120C 365.058,120.377 364.058,121.21 363.5,122.5 Z"/></g>
<g><path style="opacity:1" fill="#bae4a4" d="M 193.5,115.5 C 193.5,127.5 193.5,139.5 193.5,151.5C 192.803,140.141 192.137,128.641 191.5,117C 191.836,115.97 192.503,115.47 193.5,115.5 Z"/></g>
<g><path style="opacity:1" fill="#264c12" d="M 316.5,114.5 C 319.5,114.5 322.5,114.5 325.5,114.5C 325.5,118.833 325.5,123.167 325.5,127.5C 317.843,125.691 312.01,128.024 308,134.5C 307.5,144.828 307.334,155.161 307.5,165.5C 302.833,165.5 298.167,165.5 293.5,165.5C 293.5,148.833 293.5,132.167 293.5,115.5C 297.167,115.5 300.833,115.5 304.5,115.5C 304.678,118.216 305.178,120.883 306,123.5C 309.103,119.886 312.603,116.886 316.5,114.5 Z"/></g>
<g><path style="opacity:1" fill="#1a4b01" d="M 295.5,116.5 C 298.167,116.5 300.833,116.5 303.5,116.5C 303.662,118.527 303.495,120.527 303,122.5C 301.069,119.895 299.236,119.895 297.5,122.5C 297.808,123.308 298.308,123.975 299,124.5C 299.333,136.167 299.667,147.833 300,159.5C 300.5,148.839 300.667,138.172 300.5,127.5C 303.326,126.545 305.659,126.545 307.5,127.5C 306.263,128.281 305.263,129.281 304.5,130.5C 305.238,141.478 305.904,152.478 306.5,163.5C 302.563,163.793 298.73,163.46 295,162.5C 294.184,147.092 294.351,131.759 295.5,116.5 Z"/></g>
<g><path style="opacity:1" fill="#8bd16d" d="M 139.5,127.5 C 142.058,129.434 143.391,132.101 143.5,135.5C 141.127,133.421 139.794,130.754 139.5,127.5 Z"/></g>
<g><path style="opacity:1" fill="#8dd46a" d="M 152.5,127.5 C 156.543,132.253 159.543,137.587 161.5,143.5C 159.952,143.179 159.285,142.179 159.5,140.5C 158.5,140.5 157.5,140.5 156.5,140.5C 156.617,142.484 155.95,144.15 154.5,145.5C 150.273,142.54 150.606,140.54 155.5,139.5C 155.054,135.302 154.054,131.302 152.5,127.5 Z"/></g>
<g><path style="opacity:1" fill="#8bcf69" d="M 119.5,101.5 C 119.833,101.5 120.167,101.5 120.5,101.5C 120.5,122.5 120.5,143.5 120.5,164.5C 123.777,164.784 126.943,164.451 130,163.5C 130.568,147.806 130.568,132.14 130,116.5C 133.462,113.756 134.962,114.756 134.5,119.5C 133.542,119.047 132.708,118.381 132,117.5C 131.5,133.497 131.333,149.497 131.5,165.5C 127.5,165.5 123.5,165.5 119.5,165.5C 119.5,144.167 119.5,122.833 119.5,101.5 Z"/></g>
<g><path style="opacity:1" fill="#ccf1c1" d="M 134.5,119.5 C 134.833,120.833 135.167,122.167 135.5,123.5C 134.25,123.423 133.417,122.756 133,121.5C 132.831,136.339 132.331,151.006 131.5,165.5C 131.333,149.497 131.5,133.497 132,117.5C 132.708,118.381 133.542,119.047 134.5,119.5 Z"/></g>
<g><path style="opacity:1" fill="#84d65f" d="M 193.5,115.5 C 197.833,115.5 202.167,115.5 206.5,115.5C 206.334,125.839 206.5,136.172 207,146.5C 207.125,149.738 208.292,152.405 210.5,154.5C 210.611,155.117 210.944,155.617 211.5,156C 216.79,157.509 220.79,156.009 223.5,151.5C 223.5,150.5 223.5,149.5 223.5,148.5C 224.268,147.737 224.768,146.737 225,145.5C 225.5,135.506 225.666,125.506 225.5,115.5C 230.167,115.5 234.833,115.5 239.5,115.5C 239.5,132.167 239.5,148.833 239.5,165.5C 235.774,165.823 232.107,165.489 228.5,164.5C 227.754,163.264 227.421,161.93 227.5,160.5C 225.517,160.157 224.183,160.824 223.5,162.5C 217.464,165.09 211.13,166.09 204.5,165.5C 200.674,164.581 197.674,162.581 195.5,159.5C 194.232,157.095 193.565,154.428 193.5,151.5C 193.5,139.5 193.5,127.5 193.5,115.5 Z"/></g>
<g><path style="opacity:1" fill="#7dd954" d="M 226.5,116.5 C 230.555,116.176 234.555,116.509 238.5,117.5C 238.733,126.071 238.399,134.738 237.5,143.5C 236.771,137.66 236.104,131.826 235.5,126C 235.167,125.5 234.833,125 234.5,124.5C 232.87,136.525 233.537,148.359 236.5,160C 233.761,161.893 231.095,161.893 228.5,160C 229.448,159.517 230.448,159.351 231.5,159.5C 231.227,156.718 229.894,154.551 227.5,153C 228.037,151.208 228.37,149.375 228.5,147.5C 226.704,137.253 226.037,126.919 226.5,116.5 Z"/></g>
<g><path style="opacity:1" fill="#eefee1" d="M 225.5,115.5 C 225.666,125.506 225.5,135.506 225,145.5C 224.768,146.737 224.268,147.737 223.5,148.5C 224.049,137.345 224.716,126.345 225.5,115.5 Z"/></g>
<g><path style="opacity:1" fill="#7adb53" d="M 195.5,159.5 C 194.68,148.521 194.347,137.521 194.5,126.5C 198.167,126.5 201.833,126.5 205.5,126.5C 205.15,137.908 204.817,149.242 204.5,160.5C 207.086,161.48 209.753,161.813 212.5,161.5C 212.5,160.167 212.5,158.833 212.5,157.5C 221.869,156.525 222.869,158.692 215.5,164C 211.5,164.667 207.5,164.667 203.5,164C 202.315,162.647 200.981,161.48 199.5,160.5C 200.325,159.614 201.325,159.281 202.5,159.5C 202.137,156.011 201.804,152.511 201.5,149C 203.032,141.91 203.699,134.743 203.5,127.5C 202.5,127.5 201.5,127.5 200.5,127.5C 200.245,137.21 199.411,146.877 198,156.5C 197.764,158.119 196.931,159.119 195.5,159.5 Z"/></g>
<g><path style="opacity:1" fill="#94d371" d="M 165.5,134.5 C 166.611,138.664 167.111,142.997 167,147.5C 166.612,148.428 165.945,149.095 165,149.5C 162.091,148.571 160.925,146.571 161.5,143.5C 161.833,143.5 162.167,143.5 162.5,143.5C 163.504,144.683 164.338,146.016 165,147.5C 165.499,143.179 165.666,138.846 165.5,134.5 Z"/></g>
<g><path style="opacity:1" fill="#9dd486" d="M 223.5,151.5 C 220.79,156.009 216.79,157.509 211.5,156C 210.944,155.617 210.611,155.117 210.5,154.5C 212.782,155.39 215.115,155.556 217.5,155C 219.388,153.606 221.388,152.44 223.5,151.5 Z"/></g>
<g><path style="opacity:1" fill="#75dd50" d="M 159.5,164.5 C 159.5,164.167 159.5,163.833 159.5,163.5C 164.68,162.185 170.014,162.185 175.5,163.5C 170.208,164.495 164.875,164.828 159.5,164.5 Z"/></g>
<g><path style="opacity:1" fill="#c2eeaf" d="M 223.5,162.5 C 222.152,164.48 220.152,165.647 217.5,166C 212.98,166.814 208.646,166.647 204.5,165.5C 211.13,166.09 217.464,165.09 223.5,162.5 Z"/></g>
<g><path style="opacity:1" fill="#b4c8ad" d="M 145.5,202.5 C 136.833,202.5 128.167,202.5 119.5,202.5C 119.5,223.5 119.5,244.5 119.5,265.5C 119.167,265.5 118.833,265.5 118.5,265.5C 118.5,244.167 118.5,222.833 118.5,201.5C 127.682,201.173 136.682,201.507 145.5,202.5 Z"/></g>
<g><path style="opacity:1" fill="#1b4b03" d="M 162.5,225.5 C 161.342,228.822 159.008,230.988 155.5,232C 164.157,235.141 167.824,241.307 166.5,250.5C 165.687,252.261 164.687,253.928 163.5,255.5C 161.807,256.475 160.307,257.808 159,259.5C 158.667,258.833 158.333,258.167 158,257.5C 157.282,258.451 156.449,258.617 155.5,258C 156.891,256.35 158.391,255.85 160,256.5C 160.684,254.521 160.184,252.854 158.5,251.5C 159.868,250.406 161.035,250.74 162,252.5C 162.167,252.167 162.333,251.833 162.5,251.5C 160.266,248.583 159.933,245.417 161.5,242C 160.828,239.61 159.495,239.11 157.5,240.5C 159.124,241.869 159.624,243.536 159,245.5C 158.257,243.355 157.424,243.189 156.5,245C 156.905,245.945 157.572,246.612 158.5,247C 157.556,249.719 157.223,252.552 157.5,255.5C 155.143,255.663 152.81,255.497 150.5,255C 152.318,252.374 153.651,249.54 154.5,246.5C 154.66,244.645 153.993,243.312 152.5,242.5C 151.167,241.5 149.833,240.5 148.5,239.5C 148.167,239.5 147.833,239.5 147.5,239.5C 146.5,238.833 145.5,238.167 144.5,237.5C 145.043,237.44 145.376,237.107 145.5,236.5C 141.623,235.803 137.79,235.136 134,234.5C 133.333,235.167 132.667,235.833 132,236.5C 130.63,242.742 130.13,249.075 130.5,255.5C 136.426,255.309 142.26,255.976 148,257.5C 149.894,257.42 151.727,257.087 153.5,256.5C 153.835,257.664 153.835,258.997 153.5,260.5C 142.788,263.896 131.788,265.23 120.5,264.5C 120.5,244.167 120.5,223.833 120.5,203.5C 128.076,203.638 135.743,203.805 143.5,204C 151.168,203.982 157.334,206.815 162,212.5C 162.499,216.821 162.666,221.154 162.5,225.5 Z"/></g>
<g><path style="opacity:1" fill="#284717" d="M 365.5,218.5 C 356.973,216.986 348.64,217.653 340.5,220.5C 339.266,223.685 340.432,225.685 344,226.5C 346.893,225.572 349.727,224.572 352.5,223.5C 354.03,223.64 355.03,224.307 355.5,225.5C 350.374,225.876 345.374,226.876 340.5,228.5C 339.651,225.965 338.651,223.465 337.5,221C 338.444,219.523 339.777,218.523 341.5,218C 348.767,216.485 356.101,216.152 363.5,217C 364.416,217.278 365.082,217.778 365.5,218.5 Z"/></g>
<g><path style="opacity:1" fill="#1b4a03" d="M 365.5,218.5 C 368.84,219.166 371.507,220.833 373.5,223.5C 373.833,224.833 374.167,226.167 374.5,227.5C 374.5,239.833 374.5,252.167 374.5,264.5C 372.143,264.663 369.81,264.497 367.5,264C 369.5,263.667 371.5,263.333 373.5,263C 371.899,262.727 370.399,262.227 369,261.5C 369.116,253.689 368.449,253.689 367,261.5C 365.461,260.454 365.295,259.121 366.5,257.5C 363.765,252.38 364.099,247.547 367.5,243C 364.384,240.641 363.718,238.141 365.5,235.5C 364.96,232.338 363.96,229.338 362.5,226.5C 360.955,225.548 359.288,225.215 357.5,225.5C 356.833,225.5 356.167,225.5 355.5,225.5C 355.03,224.307 354.03,223.64 352.5,223.5C 349.727,224.572 346.893,225.572 344,226.5C 340.432,225.685 339.266,223.685 340.5,220.5C 348.64,217.653 356.973,216.986 365.5,218.5 Z"/></g>
<g><path style="opacity:1" fill="#274a13" d="M 132.5,212.5 C 132.611,211.883 132.944,211.383 133.5,211C 139.167,210.333 144.833,210.333 150.5,211C 151.167,215.667 151.833,220.333 152.5,225C 151.107,226.171 150.273,227.671 150,229.5C 149.667,228.833 149.333,228.167 149,227.5C 143.379,228.21 137.712,228.877 132,229.5C 130.413,228.663 129.58,227.33 129.5,225.5C 129.718,220.731 130.718,216.398 132.5,212.5 Z"/></g>
<g><path style="opacity:1" fill="#f6fcf1" d="M 143.5,213.5 C 149.849,214.027 152.016,217.361 150,223.5C 149.082,225.376 147.582,226.376 145.5,226.5C 141.5,226.5 137.5,226.5 133.5,226.5C 133.5,222.167 133.5,217.833 133.5,213.5C 136.833,213.5 140.167,213.5 143.5,213.5 Z"/></g>
<g><path style="opacity:1" fill="#abc2a0" d="M 132.5,212.5 C 136.371,212.185 140.038,212.518 143.5,213.5C 140.167,213.5 136.833,213.5 133.5,213.5C 133.5,217.833 133.5,222.167 133.5,226.5C 137.5,226.5 141.5,226.5 145.5,226.5C 141.366,227.485 137.032,227.818 132.5,227.5C 132.5,222.5 132.5,217.5 132.5,212.5 Z"/></g>
<g><path style="opacity:1" fill="#839874" d="M 188.5,218.5 C 185.272,217.586 181.939,217.253 178.5,217.5C 178.5,233.5 178.5,249.5 178.5,265.5C 177.504,249.342 177.17,233.009 177.5,216.5C 181.649,215.92 185.316,216.586 188.5,218.5 Z"/></g>
<g><path style="opacity:1" fill="#7e966e" d="M 262.5,265.5 C 262.5,249.5 262.5,233.5 262.5,217.5C 258.5,217.5 254.5,217.5 250.5,217.5C 250.826,225.684 250.492,233.684 249.5,241.5C 249.5,233.167 249.5,224.833 249.5,216.5C 254.167,216.5 258.833,216.5 263.5,216.5C 263.83,233.009 263.496,249.342 262.5,265.5 Z"/></g>
<g><path style="opacity:1" fill="#819a76" d="M 287.5,217.5 C 284.167,217.5 280.833,217.5 277.5,217.5C 277.5,233.5 277.5,249.5 277.5,265.5C 276.504,249.342 276.17,233.009 276.5,216.5C 280.371,216.185 284.038,216.518 287.5,217.5 Z"/></g>
<g><path style="opacity:1" fill="#1c4a04" d="M 308.5,265.5 C 308.667,254.162 308.5,242.828 308,231.5C 307.722,230.584 307.222,229.918 306.5,229.5C 306.5,229.167 306.5,228.833 306.5,228.5C 307.953,227.175 307.619,226.342 305.5,226C 302.167,225.333 298.833,225.333 295.5,226C 293.397,227.185 291.73,228.852 290.5,231C 289.531,242.461 289.198,253.961 289.5,265.5C 285.5,265.5 281.5,265.5 277.5,265.5C 277.5,249.5 277.5,233.5 277.5,217.5C 280.833,217.5 284.167,217.5 287.5,217.5C 287.771,219.312 288.438,220.978 289.5,222.5C 295.733,216.774 303.066,214.941 311.5,217C 316.428,218.927 319.594,222.427 321,227.5C 321.5,240.162 321.667,252.829 321.5,265.5C 317.167,265.5 312.833,265.5 308.5,265.5 Z"/></g>
<g><path style="opacity:1" fill="#edf7e5" d="M 355.5,225.5 C 356.167,225.5 356.833,225.5 357.5,225.5C 361.753,227.448 363.42,230.781 362.5,235.5C 353.368,234.516 344.701,236.016 336.5,240C 335.695,241.113 335.028,242.279 334.5,243.5C 334.167,243.5 333.833,243.5 333.5,243.5C 333.344,239.418 333.844,235.418 335,231.5C 335.483,232.448 335.649,233.448 335.5,234.5C 341.199,235.056 346.866,234.389 352.5,232.5C 355.034,233.788 357.534,233.788 360,232.5C 360.684,231.216 360.517,230.049 359.5,229C 352.984,228.924 346.65,228.757 340.5,228.5C 345.374,226.876 350.374,225.876 355.5,225.5 Z"/></g>
<g><path style="opacity:1" fill="#3b5a29" d="M 306.5,228.5 C 299.534,224.659 294.367,226.326 291,233.5C 290.83,244.341 290.33,255.008 289.5,265.5C 289.198,253.961 289.531,242.461 290.5,231C 291.73,228.852 293.397,227.185 295.5,226C 298.833,225.333 302.167,225.333 305.5,226C 307.619,226.342 307.953,227.175 306.5,228.5 Z"/></g>
<g><path style="opacity:1" fill="#2b4818" d="M 231.5,217.5 C 231.5,227.5 231.5,237.5 231.5,247.5C 230.527,245.052 230.194,242.385 230.5,239.5C 230.5,234.167 230.5,228.833 230.5,223.5C 230.714,221.856 230.38,220.356 229.5,219C 226.24,218.216 223.073,218.383 220,219.5C 219.5,231.495 219.333,243.495 219.5,255.5C 218.566,254.432 218.232,253.099 218.5,251.5C 218.5,240.167 218.5,228.833 218.5,217.5C 222.833,217.5 227.167,217.5 231.5,217.5 Z"/></g>
<g><path style="opacity:1" fill="#acc09e" d="M 231.5,217.5 C 227.167,217.5 222.833,217.5 218.5,217.5C 218.5,228.833 218.5,240.167 218.5,251.5C 217.505,240.012 217.172,228.345 217.5,216.5C 222.363,216.181 227.03,216.514 231.5,217.5 Z"/></g>
<g><path style="opacity:1" fill="#1f4b07" d="M 178.5,265.5 C 178.5,249.5 178.5,233.5 178.5,217.5C 181.939,217.253 185.272,217.586 188.5,218.5C 188.857,220.589 189.523,222.589 190.5,224.5C 195.053,217.727 201.386,215.06 209.5,216.5C 208.838,220.466 208.505,224.466 208.5,228.5C 201.148,226.759 195.648,229.092 192,235.5C 191.5,245.494 191.334,255.494 191.5,265.5C 187.167,265.5 182.833,265.5 178.5,265.5 Z"/></g>
<g><path style="opacity:1" fill="#f2fde8" d="M 306.5,229.5 C 307.222,229.918 307.722,230.584 308,231.5C 308.5,242.828 308.667,254.162 308.5,265.5C 304.843,263.126 304.509,260.126 307.5,256.5C 306.117,247.417 305.783,238.417 306.5,229.5 Z"/></g>
<g><path style="opacity:1" fill="#eefee8" d="M 373.5,223.5 C 374.5,223.5 375.5,223.5 376.5,223.5C 376.5,237.833 376.5,252.167 376.5,266.5C 374.512,266.827 372.512,267.16 370.5,267.5C 368.97,267.36 367.97,266.693 367.5,265.5C 370.167,265.5 372.833,265.5 375.5,265.5C 375.829,252.656 375.495,239.989 374.5,227.5C 374.167,226.167 373.833,224.833 373.5,223.5 Z"/></g>
<g><path style="opacity:1" fill="#204909" d="M 262.5,265.5 C 259.167,265.5 255.833,265.5 252.5,265.5C 252.753,263.173 252.086,261.173 250.5,259.5C 245.023,264.974 238.356,267.14 230.5,266C 224.356,265.021 220.689,261.521 219.5,255.5C 219.333,243.495 219.5,231.495 220,219.5C 223.073,218.383 226.24,218.216 229.5,219C 230.38,220.356 230.714,221.856 230.5,223.5C 228.351,220.282 225.351,219.115 221.5,220C 220.863,222.243 220.53,224.576 220.5,227C 221.779,233.169 221.779,239.336 220.5,245.5C 220.241,249.16 221.075,252.493 223,255.5C 223.119,250.718 223.785,246.051 225,241.5C 225.333,242.167 225.667,242.833 226,243.5C 227.307,241.808 228.807,240.475 230.5,239.5C 230.194,242.385 230.527,245.052 231.5,247.5C 232.058,254.289 235.725,256.956 242.5,255.5C 238.966,258.676 235.466,258.676 232,255.5C 231,256.5 230,257.5 229,258.5C 227.933,256.717 226.433,256.217 224.5,257C 226.976,258.309 228.976,260.142 230.5,262.5C 233.704,263.204 236.871,263.87 240,264.5C 242.668,259.966 246.668,257.633 252,257.5C 253.531,260.272 255.698,262.272 258.5,263.5C 259.647,263.182 260.481,262.516 261,261.5C 261.667,247.5 261.667,233.5 261,219.5C 258.199,218.205 255.366,218.205 252.5,219.5C 251.474,229.18 251.308,238.847 252,248.5C 249.923,250.076 248.423,252.076 247.5,254.5C 246.311,255.429 244.978,255.762 243.5,255.5C 247.993,252.054 249.993,247.387 249.5,241.5C 250.492,233.684 250.826,225.684 250.5,217.5C 254.5,217.5 258.5,217.5 262.5,217.5C 262.5,233.5 262.5,249.5 262.5,265.5 Z"/></g>
<g><path style="opacity:1" fill="#1a4b01" d="M 230.5,223.5 C 230.5,228.833 230.5,234.167 230.5,239.5C 228.807,240.475 227.307,241.808 226,243.5C 225.667,242.833 225.333,242.167 225,241.5C 223.785,246.051 223.119,250.718 223,255.5C 221.075,252.493 220.241,249.16 220.5,245.5C 221.779,239.336 221.779,233.169 220.5,227C 220.53,224.576 220.863,222.243 221.5,220C 225.351,219.115 228.351,220.282 230.5,223.5 Z"/></g>
<g><path style="opacity:1" fill="#e7f3df" d="M 144.5,237.5 C 145.5,238.167 146.5,238.833 147.5,239.5C 143.116,239.174 138.783,239.508 134.5,240.5C 135.479,244.236 135.479,247.736 134.5,251C 135.263,251.944 136.263,252.444 137.5,252.5C 140.066,251.632 142.566,250.632 145,249.5C 146.667,250.833 148.333,250.833 150,249.5C 151.12,246.001 150.287,243.167 147.5,241C 148.056,240.617 148.389,240.117 148.5,239.5C 149.833,240.5 151.167,241.5 152.5,242.5C 153.204,246.803 151.87,250.303 148.5,253C 143.292,254.397 137.959,254.897 132.5,254.5C 132.5,248.833 132.5,243.167 132.5,237.5C 136.5,237.5 140.5,237.5 144.5,237.5 Z"/></g>
<g><path style="opacity:1" fill="#1a4b01" d="M 242.5,255.5 C 242.833,255.5 243.167,255.5 243.5,255.5C 244.978,255.762 246.311,255.429 247.5,254.5C 248.423,252.076 249.923,250.076 252,248.5C 251.308,238.847 251.474,229.18 252.5,219.5C 255.366,218.205 258.199,218.205 261,219.5C 261.667,233.5 261.667,247.5 261,261.5C 260.481,262.516 259.647,263.182 258.5,263.5C 255.698,262.272 253.531,260.272 252,257.5C 246.668,257.633 242.668,259.966 240,264.5C 236.871,263.87 233.704,263.204 230.5,262.5C 228.976,260.142 226.976,258.309 224.5,257C 226.433,256.217 227.933,256.717 229,258.5C 230,257.5 231,256.5 232,255.5C 235.466,258.676 238.966,258.676 242.5,255.5 Z"/></g>
<g><path style="opacity:1" fill="#20460c" d="M 145.5,202.5 C 151.76,202.42 157.26,204.42 162,208.5C 165.059,214.223 165.225,219.889 162.5,225.5C 162.666,221.154 162.499,216.821 162,212.5C 157.334,206.815 151.168,203.982 143.5,204C 135.743,203.805 128.076,203.638 120.5,203.5C 120.5,223.833 120.5,244.167 120.5,264.5C 131.788,265.23 142.788,263.896 153.5,260.5C 153.835,258.997 153.835,257.664 153.5,256.5C 151.727,257.087 149.894,257.42 148,257.5C 142.26,255.976 136.426,255.309 130.5,255.5C 130.13,249.075 130.63,242.742 132,236.5C 132.667,235.833 133.333,235.167 134,234.5C 137.79,235.136 141.623,235.803 145.5,236.5C 145.376,237.107 145.043,237.44 144.5,237.5C 140.5,237.5 136.5,237.5 132.5,237.5C 132.5,243.167 132.5,248.833 132.5,254.5C 137.959,254.897 143.292,254.397 148.5,253C 151.87,250.303 153.204,246.803 152.5,242.5C 153.993,243.312 154.66,244.645 154.5,246.5C 153.651,249.54 152.318,252.374 150.5,255C 152.81,255.497 155.143,255.663 157.5,255.5C 157.223,252.552 157.556,249.719 158.5,247C 157.572,246.612 156.905,245.945 156.5,245C 157.424,243.189 158.257,243.355 159,245.5C 159.624,243.536 159.124,241.869 157.5,240.5C 159.495,239.11 160.828,239.61 161.5,242C 159.933,245.417 160.266,248.583 162.5,251.5C 162.333,251.833 162.167,252.167 162,252.5C 161.035,250.74 159.868,250.406 158.5,251.5C 160.184,252.854 160.684,254.521 160,256.5C 158.391,255.85 156.891,256.35 155.5,258C 156.449,258.617 157.282,258.451 158,257.5C 158.333,258.167 158.667,258.833 159,259.5C 160.307,257.808 161.807,256.475 163.5,255.5C 161.424,260.224 157.758,263.058 152.5,264C 141.555,265.379 130.555,265.879 119.5,265.5C 119.5,244.5 119.5,223.5 119.5,202.5C 128.167,202.5 136.833,202.5 145.5,202.5 Z"/></g>
<g><path style="opacity:1" fill="#fdfdfd" d="M 147.5,239.5 C 147.833,239.5 148.167,239.5 148.5,239.5C 148.389,240.117 148.056,240.617 147.5,241C 150.287,243.167 151.12,246.001 150,249.5C 148.333,250.833 146.667,250.833 145,249.5C 142.566,250.632 140.066,251.632 137.5,252.5C 136.263,252.444 135.263,251.944 134.5,251C 135.479,247.736 135.479,244.236 134.5,240.5C 138.783,239.508 143.116,239.174 147.5,239.5 Z"/></g>
<g><path style="opacity:1" fill="#224a0e" d="M 357.5,225.5 C 359.288,225.215 360.955,225.548 362.5,226.5C 363.96,229.338 364.96,232.338 365.5,235.5C 363.718,238.141 364.384,240.641 367.5,243C 364.099,247.547 363.765,252.38 366.5,257.5C 365.295,259.121 365.461,260.454 367,261.5C 368.449,253.689 369.116,253.689 369,261.5C 370.399,262.227 371.899,262.727 373.5,263C 371.5,263.333 369.5,263.667 367.5,264C 369.81,264.497 372.143,264.663 374.5,264.5C 374.5,252.167 374.5,239.833 374.5,227.5C 375.495,239.989 375.829,252.656 375.5,265.5C 372.833,265.5 370.167,265.5 367.5,265.5C 365.636,264.022 364.303,262.022 363.5,259.5C 355.344,267.249 346.344,268.415 336.5,263C 332.579,256.956 331.579,250.456 333.5,243.5C 333.833,243.5 334.167,243.5 334.5,243.5C 335.028,242.279 335.695,241.113 336.5,240C 344.701,236.016 353.368,234.516 362.5,235.5C 363.42,230.781 361.753,227.448 357.5,225.5 Z"/></g>
<g><path style="opacity:1" fill="#f6f9f4" d="M 351.5,243.5 C 355.167,243.5 358.833,243.5 362.5,243.5C 363.037,253.462 358.371,257.628 348.5,256C 344.089,250.557 345.089,246.39 351.5,243.5 Z"/></g>
<g><path style="opacity:1" fill="#1a4c01" d="M 334.5,243.5 C 338.985,240.971 343.819,238.971 349,237.5C 350.261,237.759 351.261,238.426 352,239.5C 355.256,237.571 358.756,237.071 362.5,238C 362.043,238.414 361.709,238.914 361.5,239.5C 357.959,240.2 354.459,240.867 351,241.5C 350.667,241.167 350.333,240.833 350,240.5C 347.821,243.011 345.321,245.178 342.5,247C 343.833,250 343.833,253 342.5,256C 344.649,257.164 346.815,258.33 349,259.5C 351.109,259.434 353.275,259.101 355.5,258.5C 356.888,259.591 357.388,260.924 357,262.5C 352.251,262.916 347.418,262.916 342.5,262.5C 341.167,259.833 339.167,257.833 336.5,256.5C 337.762,254.425 337.595,252.425 336,250.5C 335.667,252.167 335.333,253.833 335,255.5C 334.501,251.514 334.334,247.514 334.5,243.5 Z"/></g>
<g><path style="opacity:1" fill="#f1f9eb" d="M 166.5,250.5 C 166.244,252.792 166.577,254.959 167.5,257C 166.833,257.667 166.167,258.333 165.5,259C 166.731,260.183 166.731,261.349 165.5,262.5C 164.833,262.167 164.167,261.833 163.5,261.5C 159.77,264.032 155.77,266.032 151.5,267.5C 142.347,266.356 133.014,266.356 123.5,267.5C 122.167,267.333 120.833,267.167 119.5,267C 118.944,266.617 118.611,266.117 118.5,265.5C 118.833,265.5 119.167,265.5 119.5,265.5C 130.555,265.879 141.555,265.379 152.5,264C 157.758,263.058 161.424,260.224 163.5,255.5C 164.687,253.928 165.687,252.261 166.5,250.5 Z"/></g>
<g><path style="opacity:1" fill="#383838" d="M 111.5,283.5 C 201.665,282.501 291.998,282.167 382.5,282.5C 382.81,285.713 382.477,288.713 381.5,291.5C 381.5,288.833 381.5,286.167 381.5,283.5C 291.5,283.5 201.5,283.5 111.5,283.5 Z"/></g>
<g><path style="opacity:1" fill="#000000" d="M 111.5,283.5 C 201.5,283.5 291.5,283.5 381.5,283.5C 381.5,286.167 381.5,288.833 381.5,291.5C 291.5,291.5 201.5,291.5 111.5,291.5C 111.5,288.833 111.5,286.167 111.5,283.5 Z"/></g>
<g><path style="opacity:1" fill="#5e5e5e" d="M 183.5,298.5 C 186.166,298.066 187.333,299.066 187,301.5C 183.403,303.066 182.237,302.066 183.5,298.5 Z"/></g>
<g><path style="opacity:1" fill="#5a5a5a" d="M 290.5,299.5 C 292.792,299.244 294.959,299.577 297,300.5C 299.667,305.167 302.333,309.833 305,314.5C 305.499,309.511 305.666,304.511 305.5,299.5C 306.833,299.5 308.167,299.5 309.5,299.5C 309.5,306.5 309.5,313.5 309.5,320.5C 307.208,320.756 305.041,320.423 303,319.5C 300.333,314.833 297.667,310.167 295,305.5C 294.501,310.489 294.334,315.489 294.5,320.5C 293.167,320.5 291.833,320.5 290.5,320.5C 290.5,313.5 290.5,306.5 290.5,299.5 Z"/></g>
<g><path style="opacity:1" fill="#555555" d="M 158.5,301.5 C 159.5,301.5 160.5,301.5 161.5,301.5C 161.5,302.5 161.5,303.5 161.5,304.5C 162.833,304.5 164.167,304.5 165.5,304.5C 165.5,305.5 165.5,306.5 165.5,307.5C 164.167,307.5 162.833,307.5 161.5,307.5C 161.5,310.833 161.5,314.167 161.5,317.5C 163.167,317.5 164.833,317.5 166.5,317.5C 166.5,318.5 166.5,319.5 166.5,320.5C 163.315,320.98 160.481,320.314 158,318.5C 158.003,314.258 157.17,310.258 155.5,306.5C 157.278,305.274 158.278,303.607 158.5,301.5 Z"/></g>
<g><path style="opacity:1" fill="#595959" d="M 233.5,304.5 C 235.167,304.5 236.833,304.5 238.5,304.5C 238.334,308.514 238.501,312.514 239,316.5C 240.938,317.86 242.604,317.527 244,315.5C 244.499,311.848 244.665,308.182 244.5,304.5C 245.833,304.5 247.167,304.5 248.5,304.5C 248.5,309.833 248.5,315.167 248.5,320.5C 245.47,319.471 242.47,319.471 239.5,320.5C 237.626,320.61 236.126,319.944 235,318.5C 233.621,313.964 233.121,309.297 233.5,304.5 Z"/></g>
<g><path style="opacity:1" fill="#595959" d="M 313.5,304.5 C 315.167,304.5 316.833,304.5 318.5,304.5C 318.334,308.514 318.501,312.514 319,316.5C 320.938,317.86 322.604,317.527 324,315.5C 324.499,311.848 324.665,308.182 324.5,304.5C 325.833,304.5 327.167,304.5 328.5,304.5C 328.5,309.833 328.5,315.167 328.5,320.5C 325.47,319.471 322.47,319.471 319.5,320.5C 317.626,320.61 316.126,319.944 315,318.5C 313.621,313.964 313.121,309.297 313.5,304.5 Z"/></g>
<g><path style="opacity:1" fill="#555555" d="M 169.5,304.5 C 171.143,304.48 172.476,305.147 173.5,306.5C 175.173,304.914 177.173,304.247 179.5,304.5C 179.5,305.833 179.5,307.167 179.5,308.5C 177.738,308.357 176.071,308.691 174.5,309.5C 173.511,313.107 173.177,316.774 173.5,320.5C 172.167,320.5 170.833,320.5 169.5,320.5C 169.5,315.167 169.5,309.833 169.5,304.5 Z"/></g>
<g><path style="opacity:1" fill="#656565" d="M 182.5,304.5 C 184.167,304.5 185.833,304.5 187.5,304.5C 187.5,309.833 187.5,315.167 187.5,320.5C 185.833,320.5 184.167,320.5 182.5,320.5C 182.5,315.167 182.5,309.833 182.5,304.5 Z"/></g>
<g><path style="opacity:1" fill="#616161" d="M 220.5,304.5 C 222.451,304.227 223.951,304.893 225,306.5C 226.584,305.139 228.418,304.472 230.5,304.5C 230.5,305.833 230.5,307.167 230.5,308.5C 228.856,308.286 227.356,308.62 226,309.5C 225.501,313.152 225.335,316.818 225.5,320.5C 223.833,320.5 222.167,320.5 220.5,320.5C 220.5,315.167 220.5,309.833 220.5,304.5 Z"/></g>
<g><path style="opacity:1" fill="#5b5b5b" d="M 253.5,304.5 C 256.53,305.529 259.53,305.529 262.5,304.5C 264.374,304.39 265.874,305.056 267,306.5C 268.379,311.036 268.879,315.703 268.5,320.5C 266.833,320.5 265.167,320.5 263.5,320.5C 263.666,316.486 263.499,312.486 263,308.5C 261.062,307.14 259.396,307.473 258,309.5C 257.501,313.152 257.335,316.818 257.5,320.5C 256.167,320.5 254.833,320.5 253.5,320.5C 253.5,315.167 253.5,309.833 253.5,304.5 Z"/></g>
<g><path style="opacity:1" fill="#5b5b5b" d="M 333.5,304.5 C 336.53,305.529 339.53,305.529 342.5,304.5C 344.374,304.39 345.874,305.056 347,306.5C 348.379,311.036 348.879,315.703 348.5,320.5C 346.833,320.5 345.167,320.5 343.5,320.5C 343.666,316.486 343.499,312.486 343,308.5C 341.062,307.14 339.396,307.473 338,309.5C 337.501,313.152 337.335,316.818 337.5,320.5C 336.167,320.5 334.833,320.5 333.5,320.5C 333.5,315.167 333.5,309.833 333.5,304.5 Z"/></g>
<g><path style="opacity:1" fill="#575757" d="M 190.5,311.5 C 192.833,311.5 195.167,311.5 197.5,311.5C 197.5,312.5 197.5,313.5 197.5,314.5C 195.167,314.5 192.833,314.5 190.5,314.5C 190.5,313.5 190.5,312.5 190.5,311.5 Z"/></g>
<g><path style="opacity:1" fill="#595959" d="M 355.5,304.5 C 362.976,303.053 366.643,306.053 366.5,313.5C 363.167,313.5 359.833,313.5 356.5,313.5C 356.33,314.822 356.663,315.989 357.5,317C 360.192,317.43 362.859,317.263 365.5,316.5C 365.427,319.95 363.594,321.283 360,320.5C 352.902,319.668 350.235,315.668 352,308.5C 353.376,307.295 354.542,305.962 355.5,304.5 Z"/></g>
<g><path style="opacity:1" fill="#f4f4f4" d="M 357.5,307.5 C 358.833,307.5 360.167,307.5 361.5,307.5C 361.5,308.5 361.5,309.5 361.5,310.5C 359.712,310.785 358.045,310.452 356.5,309.5C 356.863,308.817 357.196,308.15 357.5,307.5 Z"/></g>
<g><path style="opacity:1" fill="#5d5d5d" d="M 113.5,299.5 C 115.792,299.244 117.959,299.577 120,300.5C 122.667,305.167 125.333,309.833 128,314.5C 128.499,309.511 128.666,304.511 128.5,299.5C 129.833,299.5 131.167,299.5 132.5,299.5C 132.5,306.5 132.5,313.5 132.5,320.5C 130.208,320.756 128.041,320.423 126,319.5C 123.333,314.833 120.667,310.167 118,305.5C 117.501,310.489 117.334,315.489 117.5,320.5C 116.167,320.5 114.833,320.5 113.5,320.5C 113.5,313.5 113.5,306.5 113.5,299.5 Z"/></g>
<g><path style="opacity:1" fill="#595959" d="M 201.5,299.5 C 205.936,299.21 210.27,299.71 214.5,301C 217.113,303.795 217.113,306.629 214.5,309.5C 217.887,314.401 216.887,317.901 211.5,320C 208.183,320.498 204.85,320.665 201.5,320.5C 201.5,313.5 201.5,306.5 201.5,299.5 Z"/></g>
<g><path style="opacity:1" fill="#ededed" d="M 205.5,311.5 C 207.527,311.338 209.527,311.505 211.5,312C 212.833,313.333 212.833,314.667 211.5,316C 209.527,316.495 207.527,316.662 205.5,316.5C 205.5,314.833 205.5,313.167 205.5,311.5 Z"/></g>
<g><path style="opacity:1" fill="#eeeeee" d="M 205.5,303.5 C 207.5,303.5 209.5,303.5 211.5,303.5C 211.5,304.833 211.5,306.167 211.5,307.5C 209.5,307.5 207.5,307.5 205.5,307.5C 205.5,306.167 205.5,304.833 205.5,303.5 Z"/></g>
<g><path style="opacity:1" fill="#595959" d="M 371.5,304.5 C 374.187,304.336 376.854,304.503 379.5,305C 380.337,306.011 380.67,307.178 380.5,308.5C 378.105,307.637 375.771,307.637 373.5,308.5C 375.988,310.069 378.488,311.736 381,313.5C 381.913,316.352 381.08,318.519 378.5,320C 375.833,320.667 373.167,320.667 370.5,320C 369.483,318.951 369.316,317.784 370,316.5C 372.139,317.769 374.305,317.769 376.5,316.5C 374.823,314.24 372.657,312.573 370,311.5C 369.185,308.802 369.685,306.468 371.5,304.5 Z"/></g>
<g><path style="opacity:1" fill="#565656" d="M 274.5,304.5 C 277.518,304.335 280.518,304.502 283.5,305C 284,305.5 284.5,306 285,306.5C 285.499,311.155 285.666,315.821 285.5,320.5C 283.857,320.52 282.524,319.853 281.5,318.5C 275.109,322.385 271.942,320.719 272,313.5C 274.75,311.282 277.917,309.949 281.5,309.5C 281,308.119 280,307.453 278.5,307.5C 276.865,308.046 275.199,308.38 273.5,308.5C 273.433,307.041 273.766,305.708 274.5,304.5 Z"/></g>
<g><path style="opacity:1" fill="#e2e2e2" d="M 279.5,312.5 C 281.344,313.204 281.844,314.537 281,316.5C 279.612,317.554 278.112,317.72 276.5,317C 275.549,316.282 275.383,315.449 276,314.5C 277.302,313.915 278.469,313.249 279.5,312.5 Z"/></g>
<g><path style="opacity:1" fill="#5b5b5b" d="M 137.5,304.5 C 138.833,304.5 140.167,304.5 141.5,304.5C 141.335,308.182 141.501,311.848 142,315.5C 143.312,317.658 144.978,317.991 147,316.5C 147.499,312.514 147.666,308.514 147.5,304.5C 149.167,304.5 150.833,304.5 152.5,304.5C 152.5,309.833 152.5,315.167 152.5,320.5C 150.549,320.773 149.049,320.107 148,318.5C 145.24,320.703 142.24,321.036 139,319.5C 137.612,314.628 137.112,309.628 137.5,304.5 Z"/></g>
</svg>
