<?xml version="1.0" encoding="UTF-8"?>
<!DOCTYPE svg PUBLIC "-//W3C//DTD SVG 1.1//EN" "http://www.w3.org/Graphics/SVG/1.1/DTD/svg11.dtd">
<svg xmlns="http://www.w3.org/2000/svg" version="1.1" width="500px" height="500px" style="shape-rendering:geometricPrecision; text-rendering:geometricPrecision; image-rendering:optimizeQuality; fill-rule:evenodd; clip-rule:evenodd" xmlns:xlink="http://www.w3.org/1999/xlink">
<g><path style="opacity:1" fill="#fefefe" d="M -0.5,-0.5 C 166.167,-0.5 332.833,-0.5 499.5,-0.5C 499.5,166.167 499.5,332.833 499.5,499.5C 332.833,499.5 166.167,499.5 -0.5,499.5C -0.5,332.833 -0.5,166.167 -0.5,-0.5 Z"/></g>
<g><path style="opacity:1" fill="#136158" d="M 188.5,168.5 C 186.165,171.5 184.665,174.834 184,178.5C 185.844,175.472 187.678,172.472 189.5,169.5C 197.404,155.088 207.071,141.921 218.5,130C 223.228,126.274 228.228,122.941 233.5,120C 238.194,118.068 242.861,118.068 247.5,120C 249.961,122.827 250.961,126.16 250.5,130C 248.893,145.881 242.226,159.214 230.5,170C 245.834,176.827 252.834,188.66 251.5,205.5C 258.118,204.608 263.952,201.942 269,197.5C 275.729,182.149 279.896,166.149 281.5,149.5C 282.192,150.025 282.692,150.692 283,151.5C 283.848,159.62 283.182,167.62 281,175.5C 275.065,193.972 268.732,212.305 262,230.5C 260.185,236.078 259.185,241.745 259,247.5C 270.497,215.168 286.163,185.168 306,157.5C 309.5,154 313,150.5 316.5,147C 321.553,142.037 325.72,142.537 329,148.5C 329.667,151.5 329.667,154.5 329,157.5C 324.201,172.23 319.201,186.897 314,201.5C 311.162,213.434 310.828,225.434 313,237.5C 316.975,250.831 325.808,256.997 339.5,256C 346.349,254.556 352.682,252.056 358.5,248.5C 359.5,248.667 360.5,248.833 361.5,249C 350.693,261.491 337.693,264.491 322.5,258C 313.829,250.491 308.995,240.991 308,229.5C 306.837,216.473 308.504,203.807 313,191.5C 316.864,180.908 320.531,170.241 324,159.5C 324.667,155.833 324.667,152.167 324,148.5C 321.206,147.154 318.706,147.654 316.5,150C 306.119,161.047 297.286,173.214 290,186.5C 277.075,210.012 266.075,234.346 257,259.5C 254.558,246.916 255.558,234.583 260,222.5C 262.265,216.538 264.432,210.538 266.5,204.5C 266.167,204.167 265.833,203.833 265.5,203.5C 261.024,205.601 256.524,207.601 252,209.5C 244.971,248.397 223.138,275.231 186.5,290C 172.614,295.269 158.281,297.269 143.5,296C 117.343,290.494 106.51,274.66 111,248.5C 116.833,236 126,226.833 138.5,221C 145.995,217.949 153.495,215.116 161,212.5C 170.589,193.654 179.923,174.654 189,155.5C 193.598,145.538 197.098,135.205 199.5,124.5C 200.84,125.688 201.507,127.188 201.5,129C 199.06,142.818 194.727,155.985 188.5,168.5 Z"/></g>
<g><path style="opacity:1" fill="#bfd5d2" d="M 188.5,168.5 C 188.5,169.167 188.833,169.5 189.5,169.5C 187.678,172.472 185.844,175.472 184,178.5C 184.665,174.834 186.165,171.5 188.5,168.5 Z"/></g>
<g><path style="opacity:1" fill="#fcfdfd" d="M 236.5,121.5 C 239.518,121.335 242.518,121.502 245.5,122C 247.928,126.296 248.094,130.796 246,135.5C 241.23,148.257 234.064,159.424 224.5,169C 216.796,169.171 209.463,170.838 202.5,174C 197.813,179.274 198.98,182.108 206,182.5C 208.591,182.435 211.091,181.935 213.5,181C 218.363,178.737 223.029,176.237 227.5,173.5C 235.671,175.502 241.171,180.502 244,188.5C 245.424,194.776 245.758,201.109 245,207.5C 240.637,208.86 236.137,209.694 231.5,210C 211.161,210.9 190.827,211.733 170.5,212.5C 181.264,186.962 195.098,163.295 212,141.5C 218.927,133.049 227.094,126.382 236.5,121.5 Z"/></g>
<g><path style="opacity:1" fill="#105f56" d="M 349.5,202.5 C 349.5,201.833 349.833,201.5 350.5,201.5C 358.415,200.873 363.915,204.206 367,211.5C 370.361,220.895 370.194,230.229 366.5,239.5C 368.329,240.282 369.829,239.616 371,237.5C 371.72,235.888 371.554,234.388 370.5,233C 373.353,232.341 375.02,233.508 375.5,236.5C 374.781,238.728 373.448,240.561 371.5,242C 362.726,247.334 353.559,248.501 344,245.5C 343.333,243.833 343.333,242.167 344,240.5C 344.318,242.061 345.151,243.228 346.5,244C 349.817,244.498 353.15,244.665 356.5,244.5C 356.53,239.087 354.696,234.421 351,230.5C 346.763,226.964 342.263,223.798 337.5,221C 343.907,221.964 350.24,223.464 356.5,225.5C 361.046,225.903 363.712,223.903 364.5,219.5C 362.924,210.608 357.924,204.942 349.5,202.5 Z"/></g>
<g><path style="opacity:1" fill="#2bafa5" d="M 350.5,201.5 C 349.833,201.5 349.5,201.833 349.5,202.5C 346.467,204.016 343.8,206.016 341.5,208.5C 343.781,210.394 344.948,212.728 345,215.5C 342.909,216.5 341.243,215.833 340,213.5C 338.635,217.223 336.968,217.223 335,213.5C 332.842,214.677 331.342,214.01 330.5,211.5C 331.538,209.431 331.204,207.431 329.5,205.5C 330.09,204.201 331.09,203.368 332.5,203C 331.62,201.644 331.286,200.144 331.5,198.5C 334.828,199.7 337.328,202.033 339,205.5C 343.624,200.593 348.791,196.259 354.5,192.5C 351.794,190.476 350.461,187.81 350.5,184.5C 352.39,184.297 353.89,184.963 355,186.5C 357.276,183.936 359.276,184.27 361,187.5C 362.049,186.483 363.216,186.316 364.5,187C 364.691,190.153 365.024,193.319 365.5,196.5C 364.448,196.351 363.448,196.517 362.5,197C 365.105,198.931 365.105,200.764 362.5,202.5C 360.443,200.731 358.61,198.731 357,196.5C 354.648,198.03 352.481,199.697 350.5,201.5 Z"/></g>
<g><path style="opacity:1" fill="#fdfdfd" d="M 244.5,210.5 C 237.883,251.404 214.549,278.238 174.5,291C 160.701,294.66 147.034,294.326 133.5,290C 112.442,279.49 106.942,263.656 117,242.5C 127.587,228.631 141.42,220.631 158.5,218.5C 151.44,231.673 147.44,245.673 146.5,260.5C 148.167,260.5 149.833,260.5 151.5,260.5C 151.941,255.673 153.107,251.007 155,246.5C 159.371,236.259 163.871,226.093 168.5,216C 188.427,214.292 208.427,213.292 228.5,213C 234.025,212.48 239.358,211.647 244.5,210.5 Z"/></g>
<g><path style="opacity:1" fill="#0d5e55" d="M 355.5,215.5 C 360.328,215.385 361.661,217.552 359.5,222C 353.681,222.526 352.348,220.359 355.5,215.5 Z"/></g>
<g><path style="opacity:1" fill="#15625a" d="M 62.5,295.5 C 66.5138,295.334 70.5138,295.501 74.5,296C 80.7952,298.425 82.9618,302.925 81,309.5C 80.044,310.579 79.2106,311.745 78.5,313C 93.2018,323.192 94.2018,334.526 81.5,347C 75.3947,349.248 69.0614,350.081 62.5,349.5C 62.5,331.5 62.5,313.5 62.5,295.5 Z"/></g>
<g><path style="opacity:1" fill="#126158" d="M 292.5,342.5 C 292.858,327.544 293.858,312.21 295.5,296.5C 295.5,314.167 295.5,331.833 295.5,349.5C 294.178,349.67 293.011,349.337 292,348.5C 283.741,333.642 275.241,318.976 266.5,304.5C 266.013,303.527 265.513,302.527 265,301.5C 264.5,317.497 264.333,333.497 264.5,349.5C 263.5,349.5 262.5,349.5 261.5,349.5C 261.5,331.5 261.5,313.5 261.5,295.5C 262.978,295.238 264.311,295.571 265.5,296.5C 274.526,311.896 283.526,327.23 292.5,342.5 Z"/></g>
<g><path style="opacity:1" fill="#397d76" d="M 295.5,296.5 C 293.858,312.21 292.858,327.544 292.5,342.5C 292.5,326.833 292.5,311.167 292.5,295.5C 293.791,295.263 294.791,295.596 295.5,296.5 Z"/></g>
<g><path style="opacity:1" fill="#fafbfb" d="M 65.5,298.5 C 69.3834,298.109 73.05,298.776 76.5,300.5C 79.128,304.035 79.128,307.535 76.5,311C 72.9743,312.337 69.3076,312.837 65.5,312.5C 65.5,307.833 65.5,303.167 65.5,298.5 Z"/></g>
<g><path style="opacity:1" fill="#c9dbda" d="M 266.5,304.5 C 265.833,319.5 265.167,334.5 264.5,349.5C 264.333,333.497 264.5,317.497 265,301.5C 265.513,302.527 266.013,303.527 266.5,304.5 Z"/></g>
<g><path style="opacity:1" fill="#31726a" d="M 164.5,314.5 C 172.059,313.28 177.559,315.947 181,322.5C 181.5,331.494 181.666,340.494 181.5,349.5C 180.5,349.5 179.5,349.5 178.5,349.5C 178.666,340.827 178.5,332.16 178,323.5C 172.408,316.013 166.408,315.68 160,322.5C 159.5,331.494 159.334,340.494 159.5,349.5C 158.167,349.5 156.833,349.5 155.5,349.5C 155.5,338.5 155.5,327.5 155.5,316.5C 158.958,318.064 161.958,317.398 164.5,314.5 Z"/></g>
<g><path style="opacity:1" fill="#146259" d="M 205.5,313.5 C 213.022,312.394 219.189,314.728 224,320.5C 224.49,319.207 224.657,317.873 224.5,316.5C 225.5,316.5 226.5,316.5 227.5,316.5C 227.5,327.5 227.5,338.5 227.5,349.5C 226.5,349.5 225.5,349.5 224.5,349.5C 224.662,347.473 224.495,345.473 224,343.5C 214.357,352.755 204.69,352.755 195,343.5C 187.92,329.565 191.42,319.565 205.5,313.5 Z"/></g>
<g><path style="opacity:1" fill="#1a655c" d="M 351.5,314.5 C 358.974,313.261 364.474,315.928 368,322.5C 368.5,331.494 368.666,340.494 368.5,349.5C 367.5,349.5 366.5,349.5 365.5,349.5C 365.666,340.827 365.5,332.16 365,323.5C 358.667,315.5 352.333,315.5 346,323.5C 345.5,332.16 345.334,340.827 345.5,349.5C 344.5,349.5 343.5,349.5 342.5,349.5C 342.5,338.5 342.5,327.5 342.5,316.5C 344.124,316.36 345.29,317.027 346,318.5C 347.812,317.023 349.645,315.69 351.5,314.5 Z"/></g>
<g><path style="opacity:1" fill="#146159" d="M 390.5,313.5 C 397.589,312.529 403.589,314.529 408.5,319.5C 401.015,327.486 393.348,335.319 385.5,343C 393.217,349.219 400.551,348.719 407.5,341.5C 408.5,342 409.5,342.5 410.5,343C 400.153,353.151 389.986,352.984 380,342.5C 373.919,329.334 377.419,319.667 390.5,313.5 Z"/></g>
<g><path style="opacity:1" fill="#fbfdfc" d="M 65.5,315.5 C 81.0587,314.223 87.8921,321.223 86,336.5C 81.772,344.869 74.9387,348.202 65.5,346.5C 65.5,336.167 65.5,325.833 65.5,315.5 Z"/></g>
<g><path style="opacity:1" fill="#17635b" d="M 109.5,315.5 C 111.176,316.183 111.843,317.517 111.5,319.5C 106.713,320.156 103.546,322.822 102,327.5C 101.5,334.826 101.334,342.159 101.5,349.5C 100.5,349.5 99.5,349.5 98.5,349.5C 98.5,338.5 98.5,327.5 98.5,316.5C 99.5,316.5 100.5,316.5 101.5,316.5C 101.34,318.199 101.506,319.866 102,321.5C 104.114,318.879 106.614,316.879 109.5,315.5 Z"/></g>
<g><path style="opacity:1" fill="#fbfcfc" d="M 206.5,316.5 C 222.842,317.846 228.009,326.179 222,341.5C 213.295,349.769 204.962,349.436 197,340.5C 192.128,329.252 195.294,321.252 206.5,316.5 Z"/></g>
<g><path style="opacity:1" fill="#f7faf9" d="M 391.5,316.5 C 396.324,315.971 400.657,317.138 404.5,320C 397.652,327.015 390.652,333.848 383.5,340.5C 382.029,339.619 381.196,338.286 381,336.5C 379.127,326.904 382.627,320.237 391.5,316.5 Z"/></g>
<g><path style="opacity:1" fill="#19645b" d="M 424.5,315.5 C 429.785,314.261 433.452,316.095 435.5,321C 435.387,322.28 434.72,323.113 433.5,323.5C 431.584,318.288 428.417,317.288 424,320.5C 423.333,322.5 423.333,324.5 424,326.5C 428.179,329.257 432.179,332.257 436,335.5C 438.744,344.068 435.744,349.068 427,350.5C 422.178,350.015 419.012,347.515 417.5,343C 417.613,341.72 418.28,340.887 419.5,340.5C 422.494,347.602 426.994,348.936 433,344.5C 433.667,341.833 433.667,339.167 433,336.5C 428.821,333.743 424.821,330.743 421,327.5C 419.593,322.643 420.76,318.643 424.5,315.5 Z"/></g>
<g><path style="opacity:1" fill="#1c655d" d="M 305.5,316.5 C 306.5,316.5 307.5,316.5 308.5,316.5C 308.094,324.917 308.594,333.251 310,341.5C 314.12,346.71 319.286,347.877 325.5,345C 327.049,343.786 328.215,342.286 329,340.5C 329.5,332.507 329.666,324.507 329.5,316.5C 330.5,316.5 331.5,316.5 332.5,316.5C 332.666,324.84 332.5,333.173 332,341.5C 329.601,347.204 325.267,349.871 319,349.5C 313.343,350.005 309.343,347.671 307,342.5C 305.59,333.916 305.09,325.25 305.5,316.5 Z"/></g>
<g><path style="opacity:1" fill="#256a62" d="M 119.5,316.5 C 120.5,316.5 121.5,316.5 122.5,316.5C 122.334,324.84 122.5,333.173 123,341.5C 129.333,348.167 135.667,348.167 142,341.5C 142.5,333.173 142.666,324.84 142.5,316.5C 143.5,316.5 144.5,316.5 145.5,316.5C 145.666,325.173 145.5,333.84 145,342.5C 142.52,347.824 138.354,350.157 132.5,349.5C 126.646,350.157 122.48,347.824 120,342.5C 119.5,333.84 119.334,325.173 119.5,316.5 Z"/></g>
<g><path style="opacity:1" fill="#c2c2c2" d="M 321.5,359.5 C 324.287,358.523 327.287,358.19 330.5,358.5C 330.5,359.5 330.5,360.5 330.5,361.5C 328.167,361.5 325.833,361.5 323.5,361.5C 323.5,362.833 323.5,364.167 323.5,365.5C 325.735,365.205 327.735,365.539 329.5,366.5C 327.167,366.5 324.833,366.5 322.5,366.5C 322.5,364.5 322.5,362.5 322.5,360.5C 324.857,360.663 327.19,360.497 329.5,360C 326.854,359.503 324.187,359.336 321.5,359.5 Z"/></g>
<g><path style="opacity:1" fill="#5e5e5e" d="M 88.5,359.5 C 92.1349,363.307 95.6349,367.307 99,371.5C 99.3333,367.5 99.6667,363.5 100,359.5C 100.667,364.833 100.667,370.167 100,375.5C 97,371.833 94,368.167 91,364.5C 90.8253,368.211 90.3253,371.878 89.5,375.5C 88.5052,370.208 88.1718,364.875 88.5,359.5 Z"/></g>
<g><path style="opacity:1" fill="#4c4c4c" d="M 122.5,364.5 C 121.5,364.5 120.5,364.5 119.5,364.5C 119.5,368.167 119.5,371.833 119.5,375.5C 119.081,371.533 118.081,367.7 116.5,364C 117.967,362.902 118.801,361.402 119,359.5C 119.49,360.793 119.657,362.127 119.5,363.5C 120.791,363.263 121.791,363.596 122.5,364.5 Z"/></g>
<g><path style="opacity:1" fill="#575757" d="M 130.5,358.5 C 132.337,358.639 132.67,359.306 131.5,360.5C 130.702,360.043 130.369,359.376 130.5,358.5 Z"/></g>
<g><path style="opacity:1" fill="#545454" d="M 148.5,358.5 C 150.337,358.639 150.67,359.306 149.5,360.5C 148.702,360.043 148.369,359.376 148.5,358.5 Z"/></g>
<g><path style="opacity:1" fill="#6e6e6e" d="M 180.5,358.5 C 182.973,358.947 183.14,359.947 181,361.5C 179.272,360.648 179.105,359.648 180.5,358.5 Z"/></g>
<g><path style="opacity:1" fill="#4d4d4d" d="M 198.5,364.5 C 197.5,364.5 196.5,364.5 195.5,364.5C 195.5,368.167 195.5,371.833 195.5,375.5C 195.081,371.533 194.081,367.7 192.5,364C 193.967,362.902 194.801,361.402 195,359.5C 195.49,360.793 195.657,362.127 195.5,363.5C 196.791,363.263 197.791,363.596 198.5,364.5 Z"/></g>
<g><path style="opacity:1" fill="#616161" d="M 226.5,358.5 C 230.164,358 233.164,359.167 235.5,362C 233.384,361.718 231.217,361.218 229,360.5C 223.455,361.578 221.455,364.911 223,370.5C 224.127,373.068 226.127,374.402 229,374.5C 231.217,373.782 233.384,373.282 235.5,373C 227.899,378.539 222.899,376.705 220.5,367.5C 220.944,363.402 222.944,360.402 226.5,358.5 Z"/></g>
<g><path style="opacity:1" fill="#7a7a7a" d="M 243.5,357.5 C 245.885,358.867 245.552,360.201 242.5,361.5C 242.167,361.333 241.833,361.167 241.5,361C 242.823,360.184 243.489,359.017 243.5,357.5 Z"/></g>
<g><path style="opacity:1" fill="#575757" d="M 259.5,358.5 C 261.337,358.639 261.67,359.306 260.5,360.5C 259.702,360.043 259.369,359.376 259.5,358.5 Z"/></g>
<g><path style="opacity:1" fill="#4c4c4c" d="M 321.5,359.5 C 324.187,359.336 326.854,359.503 329.5,360C 327.19,360.497 324.857,360.663 322.5,360.5C 322.5,362.5 322.5,364.5 322.5,366.5C 324.833,366.5 327.167,366.5 329.5,366.5C 327.393,367.468 325.059,367.802 322.5,367.5C 322.5,369.833 322.5,372.167 322.5,374.5C 324.857,374.337 327.19,374.503 329.5,375C 326.854,375.497 324.187,375.664 321.5,375.5C 321.5,370.167 321.5,364.833 321.5,359.5 Z"/></g>
<g><path style="opacity:1" fill="#4d4d4d" d="M 377.5,375.5 C 377.984,371.173 377.318,367.173 375.5,363.5C 377.045,362.77 377.878,361.437 378,359.5C 378.199,361.402 379.033,362.902 380.5,364C 378.919,367.7 377.919,371.533 377.5,375.5 Z"/></g>
<g><path style="opacity:1" fill="#565656" d="M 382.5,358.5 C 384.337,358.639 384.67,359.306 383.5,360.5C 382.702,360.043 382.369,359.376 382.5,358.5 Z"/></g>
<g><path style="opacity:1" fill="#676767" d="M 123.5,363.5 C 125.39,364.18 127.39,364.347 129.5,364C 128.069,364.465 126.903,365.299 126,366.5C 125.821,369.553 125.321,372.553 124.5,375.5C 123.509,371.555 123.176,367.555 123.5,363.5 Z"/></g>
<g><path style="opacity:1" fill="#767676" d="M 130.5,363.5 C 131.794,365.048 132.461,367.048 132.5,369.5C 132.167,371.5 131.833,373.5 131.5,375.5C 130.509,371.555 130.176,367.555 130.5,363.5 Z"/></g>
<g><path style="opacity:1" fill="#626262" d="M 148.5,363.5 C 149.794,365.048 150.461,367.048 150.5,369.5C 150.167,371.5 149.833,373.5 149.5,375.5C 148.509,371.555 148.176,367.555 148.5,363.5 Z"/></g>
<g><path style="opacity:1" fill="#6a6a6a" d="M 167.5,363.5 C 170.007,363.805 172.674,363.971 175.5,364C 176,364.5 176.5,365 177,365.5C 176.997,378.833 176.33,378.833 175,365.5C 173.062,364.14 171.396,364.473 170,366.5C 169.821,369.553 169.321,372.553 168.5,375.5C 167.509,371.555 167.176,367.555 167.5,363.5 Z"/></g>
<g><path style="opacity:1" fill="#919191" d="M 242.5,363.5 C 243.794,365.048 244.461,367.048 244.5,369.5C 244.167,371.5 243.833,373.5 243.5,375.5C 242.509,371.555 242.176,367.555 242.5,363.5 Z"/></g>
<g><path style="opacity:1" fill="#636363" d="M 259.5,363.5 C 260.794,365.048 261.461,367.048 261.5,369.5C 261.167,371.5 260.833,373.5 260.5,375.5C 259.509,371.555 259.176,367.555 259.5,363.5 Z"/></g>
<g><path style="opacity:1" fill="#626262" d="M 340.5,363.5 C 343.403,363.907 346.403,364.074 349.5,364C 353.057,367.182 353.391,370.682 350.5,374.5C 347.966,375.788 345.466,375.788 343,374.5C 342.798,376.256 342.298,377.922 341.5,379.5C 340.505,374.208 340.172,368.875 340.5,363.5 Z"/></g>
<g><path style="opacity:1" fill="#5d5d5d" d="M 357.5,363.5 C 366.244,363.413 368.577,367.246 364.5,375C 358.984,376.925 355.651,375.091 354.5,369.5C 354.984,367.199 355.984,365.199 357.5,363.5 Z"/></g>
<g><path style="opacity:1" fill="#656565" d="M 374.5,363.5 C 373.833,364.167 373.167,364.833 372.5,365.5C 371.883,365.611 371.383,365.944 371,366.5C 370.821,369.553 370.321,372.553 369.5,375.5C 368.167,371.5 368.167,367.5 369.5,363.5C 371.003,364.052 372.669,364.052 374.5,363.5 Z"/></g>
<g><path style="opacity:1" fill="#757575" d="M 382.5,363.5 C 383.794,365.048 384.461,367.048 384.5,369.5C 384.167,371.5 383.833,373.5 383.5,375.5C 382.509,371.555 382.176,367.555 382.5,363.5 Z"/></g>
<g><path style="opacity:1" fill="#595959" d="M 401.5,363.5 C 404.365,363.055 406.865,363.722 409,365.5C 409.333,364.833 409.667,364.167 410,363.5C 410.667,367.5 410.667,371.5 410,375.5C 407.301,375.336 404.468,375.17 401.5,375C 397.581,371.173 397.581,367.339 401.5,363.5 Z"/></g>
<g><path style="opacity:1" fill="#5e5e5e" d="M 185.5,363.5 C 187.429,363.231 189.095,363.731 190.5,365C 189.451,365.492 188.451,365.326 187.5,364.5C 186.5,364.833 185.833,365.5 185.5,366.5C 186.865,367.941 188.365,369.274 190,370.5C 190.72,372.112 190.554,373.612 189.5,375C 187.272,375.82 185.272,375.487 183.5,374C 190.704,374.406 191.204,372.573 185,368.5C 184.36,366.735 184.527,365.068 185.5,363.5 Z"/></g>
<g><path style="opacity:1" fill="#b8b8b8" d="M 198.5,364.5 C 196.993,368.042 195.993,371.708 195.5,375.5C 195.5,371.833 195.5,368.167 195.5,364.5C 196.5,364.5 197.5,364.5 198.5,364.5 Z"/></g>
<g><path style="opacity:1" fill="#575757" d="M 249.5,365.5 C 251.282,363.313 253.448,362.98 256,364.5C 256.667,368.167 256.667,371.833 256,375.5C 255.667,372.5 255.333,369.5 255,366.5C 253.512,364.17 251.679,363.836 249.5,365.5 Z"/></g>
<g><path style="opacity:1" fill="#595959" d="M 287.5,373.5 C 282.449,376.972 279.116,375.639 277.5,369.5C 279.166,363.307 282.666,361.974 288,365.5C 288.333,364.833 288.667,364.167 289,363.5C 289.667,367.5 289.667,371.5 289,375.5C 288.722,374.584 288.222,373.918 287.5,373.5 Z"/></g>
<g><path style="opacity:1" fill="#f5f5f5" d="M 287.5,373.5 C 281.046,375.548 278.546,373.214 280,366.5C 284.209,363.404 287.042,364.404 288.5,369.5C 288.154,370.849 287.821,372.183 287.5,373.5 Z"/></g>
<g><path style="opacity:1" fill="#f6f6f6" d="M 345.5,364.5 C 348.887,364.716 350.887,366.55 351.5,370C 349.666,374.665 346.833,375.498 343,372.5C 341.837,369.029 342.67,366.362 345.5,364.5 Z"/></g>
<g><path style="opacity:1" fill="#f6f6f6" d="M 359.5,364.5 C 362.887,364.716 364.887,366.55 365.5,370C 363.715,374.653 360.881,375.487 357,372.5C 356.023,369.183 356.856,366.516 359.5,364.5 Z"/></g>
<g><path style="opacity:1" fill="#bdbdbd" d="M 374.5,363.5 C 374.833,363.5 375.167,363.5 375.5,363.5C 377.318,367.173 377.984,371.173 377.5,375.5C 376.521,372.375 376.187,369.042 376.5,365.5C 375.167,365.5 373.833,365.5 372.5,365.5C 373.167,364.833 373.833,364.167 374.5,363.5 Z"/></g>
<g><path style="opacity:1" fill="#5f5f5f" d="M 386.5,363.5 C 388.532,365.851 390.365,368.517 392,371.5C 393,369.167 394,366.833 395,364.5C 395.654,363.304 396.154,363.304 396.5,364.5C 395,368.167 393.5,371.833 392,375.5C 389.878,371.637 388.045,367.637 386.5,363.5 Z"/></g>
<g><path style="opacity:1" fill="#f5f5f5" d="M 403.5,364.5 C 408.5,365.155 410.167,367.822 408.5,372.5C 402.196,375.712 399.696,373.712 401,366.5C 401.995,365.934 402.828,365.267 403.5,364.5 Z"/></g>
<g><path style="opacity:1" fill="#9e9e9e" d="M 122.5,364.5 C 120.993,368.042 119.993,371.708 119.5,375.5C 119.5,371.833 119.5,368.167 119.5,364.5C 120.5,364.5 121.5,364.5 122.5,364.5 Z"/></g>
<g><path style="opacity:1" fill="#5c5c5c" d="M 155.5,363.5 C 164.244,363.413 166.577,367.246 162.5,375C 156.984,376.925 153.651,375.091 152.5,369.5C 152.984,367.199 153.984,365.199 155.5,363.5 Z"/></g>
<g><path style="opacity:1" fill="#f4f4f4" d="M 157.5,364.5 C 162.5,365.155 164.167,367.822 162.5,372.5C 158.49,375.667 155.823,374.834 154.5,370C 154.613,367.601 155.613,365.768 157.5,364.5 Z"/></g>
<g><path style="opacity:1" fill="#595959" d="M 302.5,359.5 C 304.39,359.297 305.89,359.963 307,361.5C 306.667,363.833 306.333,366.167 306,368.5C 307.506,371.474 309.172,371.807 311,369.5C 309.886,371.669 310.386,373.502 312.5,375C 310.953,375.333 309.62,374.833 308.5,373.5C 302.508,378.345 299.675,377.012 300,369.5C 303.117,367.565 303.284,365.398 300.5,363C 300.978,361.697 301.645,360.531 302.5,359.5 Z"/></g>
<g><path style="opacity:1" fill="#eeeeee" d="M 302.5,361.5 C 306.864,361.665 307.364,362.998 304,365.5C 302.812,364.437 302.312,363.103 302.5,361.5 Z"/></g>
<g><path style="opacity:1" fill="#5e5e5e" d="M 208.5,374.5 C 203.516,376.801 200.516,375.135 199.5,369.5C 201.292,363.517 204.792,362.184 210,365.5C 210.333,364.833 210.667,364.167 211,363.5C 211.667,367.5 211.667,371.5 211,375.5C 210.329,374.748 209.496,374.414 208.5,374.5 Z"/></g>
<g><path style="opacity:1" fill="#f6f6f6" d="M 208.5,374.5 C 203,375.169 200.833,372.835 202,367.5C 204.617,363.524 207.284,363.524 210,367.5C 210.609,370.065 210.109,372.399 208.5,374.5 Z"/></g>
<g><path style="opacity:1" fill="#f5f5f5" d="M 302.5,368.5 C 304.544,369.031 306.211,370.198 307.5,372C 305.74,374.483 303.573,374.983 301,373.5C 300.387,371.505 300.887,369.838 302.5,368.5 Z"/></g>
<g><path style="opacity:1" fill="#717171" d="M 249.5,365.5 C 248.907,368.8 248.24,372.134 247.5,375.5C 246.167,371.5 246.167,367.5 247.5,363.5C 248.182,364.243 248.849,364.909 249.5,365.5 Z"/></g>
<g><path style="opacity:1" fill="#616161" d="M 332.5,363.5 C 334.288,363.215 335.955,363.548 337.5,364.5C 336.443,364.906 335.109,364.906 333.5,364.5C 333.351,365.552 333.517,366.552 334,367.5C 340.356,372.774 339.523,375.108 331.5,374.5C 333.003,373.948 334.669,373.948 336.5,374.5C 336.762,373.022 336.429,371.689 335.5,370.5C 332.013,369.066 331.013,366.733 332.5,363.5 Z"/></g>
<g><path style="opacity:1" fill="#666666" d="M 104.5,363.5 C 105.319,366.305 105.819,369.305 106,372.5C 108,375.167 110,375.167 112,372.5C 112.179,369.447 112.679,366.447 113.5,363.5C 114.959,367.528 114.626,371.361 112.5,375C 109.901,375.769 107.401,375.602 105,374.5C 104.501,370.848 104.335,367.182 104.5,363.5 Z"/></g>
<g><path style="opacity:1" fill="#5a5a5a" d="M 138.5,363.5 C 141.665,362.964 144.331,363.797 146.5,366C 144.632,366.004 142.798,365.504 141,364.5C 136.794,365.593 135.461,368.26 137,372.5C 139.667,375.167 142.333,375.167 145,372.5C 145.617,373.449 145.451,374.282 144.5,375C 137.672,376.824 134.506,374.324 135,367.5C 135.69,365.65 136.856,364.316 138.5,363.5 Z"/></g>
<g><path style="opacity:1" fill="#5a5a5a" d="M 267.5,363.5 C 270.665,362.964 273.331,363.797 275.5,366C 273.632,366.004 271.798,365.504 270,364.5C 265.794,365.593 264.461,368.26 266,372.5C 268.795,375.113 271.629,375.113 274.5,372.5C 275.833,373.167 275.833,373.833 274.5,374.5C 268.752,377.039 265.085,375.372 263.5,369.5C 263.866,366.744 265.2,364.744 267.5,363.5 Z"/></g>
</svg>
